<?xml version="1.0" encoding="utf-8"?>
<!-- Generator: Adobe Illustrator 22.0.1, SVG Export Plug-In . SVG Version: 6.00 Build 0)  -->
<svg version="1.1" id="Layer_1" xmlns="http://www.w3.org/2000/svg" xmlns:xlink="http://www.w3.org/1999/xlink" x="0px" y="0px"
	 viewBox="0 0 800 393.243" style="enable-background:new 0 0 800 393.243;" xml:space="preserve">
<style type="text/css">
	.st0{fill:#FFFFFF;}
</style>
<g id="Logo-3">
	<g id="Software-2">
		<path class="st0" d="M437.402,348.282l-9.41,5.016c-1.478-3.033-3.305-4.549-5.522-4.549c-0.996-0.007-1.956,0.369-2.683,1.05
			c-0.731,0.68-1.129,1.646-1.089,2.644c0,1.905,2.178,3.888,6.572,5.638c4.463,1.615,8.589,4.041,12.171,7.155
			c2.177,2.425,3.309,5.611,3.15,8.866c0.083,4.556-1.835,8.92-5.249,11.938c-7.861,6.799-19.747,5.939-26.546-1.922
			c-1.438-1.663-2.574-3.566-3.356-5.621l9.721-4.471c0.82,1.621,1.853,3.125,3.072,4.471c1.327,1.271,3.101,1.97,4.938,1.944
			c3.888,0,5.794-1.75,5.794-5.25c0-2.061-1.478-3.888-4.472-5.677l-3.422-1.672l-3.5-1.672c-2.632-1.14-5.012-2.792-6.999-4.861
			c-1.74-2.212-2.648-4.964-2.566-7.777c-0.118-4.015,1.48-7.89,4.394-10.654c2.956-2.769,6.876-4.276,10.927-4.2
			C429.564,338.626,435.177,342.455,437.402,348.282z"/>
		<path class="st0" d="M448.484,364.07c-0.076-6.877,2.747-13.468,7.777-18.159c4.919-4.947,11.651-7.659,18.626-7.504
			c7-0.129,13.752,2.594,18.703,7.543c10.192,10.265,10.192,26.831,0,37.096c-5.022,4.93-11.823,7.622-18.859,7.465
			c-7.009,0.115-13.748-2.705-18.587-7.777C451.127,377.835,448.355,371.081,448.484,364.07z M460.15,364.07
			c-0.245,4.243,1.147,8.418,3.888,11.665c5.945,5.774,15.403,5.774,21.348,0c2.744-3.17,4.139-7.286,3.888-11.471
			c0.286-4.248-1.111-8.439-3.888-11.665c-5.888-5.801-15.343-5.801-21.231,0c-2.896,3.211-4.344,7.471-4.005,11.782V364.07z"/>
		<path class="st0" d="M524.97,350.538v38.651h-11.665v-38.651h-3.888v-10.654h3.888V320.87c-0.435-4.624,0.717-9.26,3.266-13.142
			c3.246-3.706,8.032-5.69,12.949-5.366c2.676,0.114,5.31,0.707,7.777,1.75v11.665l-1.128-0.622
			c-1.871-1.068-3.957-1.705-6.105-1.866c-1.692-0.251-3.349,0.633-4.083,2.178c-0.888,2.639-1.245,5.427-1.05,8.205v16.215h12.365
			v10.654L524.97,350.538z"/>
		<path class="st0" d="M559.383,350.538v38.651H547.99v-38.651h-4.861v-10.654h4.861v-18.042h11.393v18.042h8.866v10.654H559.383z"
			/>
		<path class="st0" d="M582.169,339.884l12.793,28.074l13.921-32.624l13.998,32.624l12.754-28.152h12.754l-25.819,52.999
			l-13.687-31.729l-13.882,31.729l-25.78-52.999L582.169,339.884z"/>
		<path class="st0" d="M690.851,339.884h11.665v49.305h-11.665v-5.172c-8.397,8.64-22.207,8.836-30.847,0.44
			c-0.414-0.403-0.813-0.822-1.194-1.257c-4.479-5.227-6.837-11.942-6.61-18.82c-0.215-6.772,2.148-13.372,6.61-18.47
			c4.168-4.8,10.248-7.505,16.604-7.388c5.953,0.047,11.607,2.62,15.554,7.077L690.851,339.884z M663.827,364.381
			c-0.19,4.236,1.195,8.391,3.888,11.665c2.415,2.91,6.018,4.569,9.799,4.51c3.89,0.16,7.646-1.44,10.227-4.355
			c5.242-6.72,5.242-16.143,0-22.864c-2.523-2.935-6.242-4.565-10.11-4.432c-3.772-0.057-7.37,1.585-9.799,4.471
			C665.189,356.428,663.763,360.345,663.827,364.381z"/>
		<path class="st0" d="M716.671,339.884h11.393v4.432c1.594-1.797,3.473-3.321,5.56-4.51c1.826-0.892,3.84-1.333,5.872-1.283
			c3.349,0.098,6.606,1.121,9.41,2.955l-5.211,10.421c-1.799-1.427-4.005-2.244-6.299-2.333c-6.222,0-9.332,4.693-9.332,14.077
			v25.547h-11.393V339.884z"/>
		<path class="st0" d="M799.65,367.22h-35.346c0.103,3.588,1.482,7.02,3.888,9.682c2.35,2.386,5.597,3.67,8.943,3.538
			c2.502,0.099,4.97-0.61,7.038-2.022c2.483-2.131,4.587-4.669,6.221-7.504l9.604,5.366c-1.324,2.332-2.902,4.509-4.705,6.493
			c-1.542,1.733-3.323,3.239-5.288,4.471c-1.905,1.164-3.977,2.029-6.144,2.566c-2.33,0.56-4.72,0.834-7.116,0.816
			c-6.661,0.298-13.125-2.296-17.731-7.116c-4.627-5.175-7.03-11.964-6.688-18.898c-0.32-6.908,2.002-13.679,6.494-18.937
			c9.522-9.456,24.863-9.543,34.491-0.195c4.45,5.317,6.703,12.131,6.299,19.053L799.65,367.22z M787.985,357.927
			c-0.913-5.62-5.99-9.597-11.665-9.138c-1.324-0.002-2.639,0.221-3.888,0.661c-2.417,0.867-4.481,2.507-5.872,4.666
			c-0.74,1.2-1.279,2.514-1.594,3.888L787.985,357.927z"/>
	</g>
	<g id="Logo-4">
		<path id="P-2" class="st0" d="M481.147,50.272c-11.588-22.165-28.01-36.551-49.267-43.162c-13.791-4.381-44.549-6.585-92.273-6.61
			h-93.323l28.969,74.58h43.045c28.256,0,46.921,0.998,55.994,2.994c11.805,2.226,22.148,9.272,28.541,19.442
			c6.688,10.369,8.788,23.602,6.299,39.701c-1.798,12.444-6.691,24.236-14.232,34.296c-7.176,9.587-16.809,17.057-27.88,21.62
			c-11.173,4.64-32.209,6.948-63.109,6.922H162.45l-23.875,74.853h162.07c35.489,0,62.941-2.1,82.357-6.3
			c15.831-4.131,30.738-11.216,43.939-20.881c16.008-11.659,29.509-26.416,39.701-43.395c12.401-20.917,20.431-44.133,23.603-68.242
			C495.742,101.016,492.709,72.411,481.147,50.272z"/>
		<g id="A-2">
			<polygon class="st0" points="192.391,91.179 225.249,179.951 306.556,179.951 234.931,0.5 151.952,0.5 0.03,389.189 
				83.282,389.189 115.478,300.882 			"/>
			<polygon class="st0" points="266.622,295.983 304.69,389.189 390.041,389.189 350.923,295.983 			"/>
		</g>
	</g>
</g>
</svg>
